<mxfile host="app.diagrams.net" agent="Mozilla/5.0 (Macintosh; Intel Mac OS X 10_15_7) AppleWebKit/537.36 (KHTML, like Gecko) Chrome/111.0.0.0 Safari/537.36" version="24.7.5">
  <diagram name="Page-1" id="E7A387A2v7J-aiyHO_gS">
    <mxGraphModel dx="1438" dy="907" grid="1" gridSize="10" guides="1" tooltips="1" connect="1" arrows="1" fold="1" page="1" pageScale="1" pageWidth="850" pageHeight="1100" math="0" shadow="0">
      <root>
        <mxCell id="0" />
        <mxCell id="1" parent="0" />
        <mxCell id="8KsDvPxNObZ1WNKapKHJ-1" value="Start" style="strokeWidth=2;html=1;shape=mxgraph.flowchart.start_1;whiteSpace=wrap;" vertex="1" parent="1">
          <mxGeometry x="195" y="50" width="100" height="60" as="geometry" />
        </mxCell>
        <mxCell id="8KsDvPxNObZ1WNKapKHJ-3" value="End" style="strokeWidth=2;html=1;shape=mxgraph.flowchart.start_1;whiteSpace=wrap;" vertex="1" parent="1">
          <mxGeometry x="370" y="860" width="100" height="60" as="geometry" />
        </mxCell>
        <mxCell id="8KsDvPxNObZ1WNKapKHJ-11" style="edgeStyle=orthogonalEdgeStyle;rounded=0;orthogonalLoop=1;jettySize=auto;html=1;exitX=1;exitY=0.5;exitDx=0;exitDy=0;exitPerimeter=0;entryX=0.5;entryY=0;entryDx=0;entryDy=0;" edge="1" parent="1" source="8KsDvPxNObZ1WNKapKHJ-4" target="8KsDvPxNObZ1WNKapKHJ-9">
          <mxGeometry relative="1" as="geometry" />
        </mxCell>
        <mxCell id="8KsDvPxNObZ1WNKapKHJ-4" value="Is First Launch?" style="strokeWidth=2;html=1;shape=mxgraph.flowchart.decision;whiteSpace=wrap;" vertex="1" parent="1">
          <mxGeometry x="195" y="180" width="100" height="100" as="geometry" />
        </mxCell>
        <mxCell id="8KsDvPxNObZ1WNKapKHJ-6" value="Yes" style="text;html=1;align=center;verticalAlign=middle;resizable=0;points=[];autosize=1;strokeColor=none;fillColor=none;" vertex="1" parent="1">
          <mxGeometry x="155" y="200" width="40" height="30" as="geometry" />
        </mxCell>
        <mxCell id="8KsDvPxNObZ1WNKapKHJ-7" style="edgeStyle=orthogonalEdgeStyle;rounded=0;orthogonalLoop=1;jettySize=auto;html=1;entryX=0;entryY=0.5;entryDx=0;entryDy=0;entryPerimeter=0;" edge="1" parent="1" source="8KsDvPxNObZ1WNKapKHJ-4" target="8KsDvPxNObZ1WNKapKHJ-3">
          <mxGeometry relative="1" as="geometry">
            <Array as="points">
              <mxPoint x="145" y="230" />
              <mxPoint x="145" y="890" />
            </Array>
          </mxGeometry>
        </mxCell>
        <mxCell id="8KsDvPxNObZ1WNKapKHJ-8" style="edgeStyle=orthogonalEdgeStyle;rounded=0;orthogonalLoop=1;jettySize=auto;html=1;exitX=0.5;exitY=1;exitDx=0;exitDy=0;exitPerimeter=0;entryX=0.5;entryY=0;entryDx=0;entryDy=0;entryPerimeter=0;" edge="1" parent="1" source="8KsDvPxNObZ1WNKapKHJ-1" target="8KsDvPxNObZ1WNKapKHJ-4">
          <mxGeometry relative="1" as="geometry" />
        </mxCell>
        <mxCell id="8KsDvPxNObZ1WNKapKHJ-9" value="Execute the migration for the lowest version" style="rounded=1;whiteSpace=wrap;html=1;absoluteArcSize=1;arcSize=14;strokeWidth=2;" vertex="1" parent="1">
          <mxGeometry x="370" y="290" width="100" height="100" as="geometry" />
        </mxCell>
        <mxCell id="8KsDvPxNObZ1WNKapKHJ-16" style="edgeStyle=orthogonalEdgeStyle;rounded=0;orthogonalLoop=1;jettySize=auto;html=1;exitX=0;exitY=0.5;exitDx=0;exitDy=0;exitPerimeter=0;entryX=0;entryY=0.5;entryDx=0;entryDy=0;" edge="1" parent="1" source="8KsDvPxNObZ1WNKapKHJ-10" target="8KsDvPxNObZ1WNKapKHJ-9">
          <mxGeometry relative="1" as="geometry">
            <mxPoint x="370" y="330" as="targetPoint" />
            <Array as="points">
              <mxPoint x="300" y="710" />
              <mxPoint x="300" y="340" />
            </Array>
          </mxGeometry>
        </mxCell>
        <mxCell id="8KsDvPxNObZ1WNKapKHJ-28" style="edgeStyle=orthogonalEdgeStyle;rounded=0;orthogonalLoop=1;jettySize=auto;html=1;exitX=0.5;exitY=1;exitDx=0;exitDy=0;exitPerimeter=0;" edge="1" parent="1" source="8KsDvPxNObZ1WNKapKHJ-10" target="8KsDvPxNObZ1WNKapKHJ-3">
          <mxGeometry relative="1" as="geometry" />
        </mxCell>
        <mxCell id="8KsDvPxNObZ1WNKapKHJ-10" value="Has Next Migration?" style="strokeWidth=2;html=1;shape=mxgraph.flowchart.decision;whiteSpace=wrap;" vertex="1" parent="1">
          <mxGeometry x="370" y="660" width="100" height="100" as="geometry" />
        </mxCell>
        <mxCell id="8KsDvPxNObZ1WNKapKHJ-12" value="Is Success?" style="strokeWidth=2;html=1;shape=mxgraph.flowchart.decision;whiteSpace=wrap;" vertex="1" parent="1">
          <mxGeometry x="370" y="460" width="100" height="100" as="geometry" />
        </mxCell>
        <mxCell id="8KsDvPxNObZ1WNKapKHJ-14" style="edgeStyle=orthogonalEdgeStyle;rounded=0;orthogonalLoop=1;jettySize=auto;html=1;entryX=0.5;entryY=0;entryDx=0;entryDy=0;entryPerimeter=0;" edge="1" parent="1" source="8KsDvPxNObZ1WNKapKHJ-9" target="8KsDvPxNObZ1WNKapKHJ-12">
          <mxGeometry relative="1" as="geometry" />
        </mxCell>
        <mxCell id="8KsDvPxNObZ1WNKapKHJ-15" style="edgeStyle=orthogonalEdgeStyle;rounded=0;orthogonalLoop=1;jettySize=auto;html=1;exitX=0.5;exitY=1;exitDx=0;exitDy=0;exitPerimeter=0;entryX=0.5;entryY=0;entryDx=0;entryDy=0;entryPerimeter=0;" edge="1" parent="1" source="8KsDvPxNObZ1WNKapKHJ-12" target="8KsDvPxNObZ1WNKapKHJ-10">
          <mxGeometry relative="1" as="geometry" />
        </mxCell>
        <mxCell id="8KsDvPxNObZ1WNKapKHJ-17" value="No" style="text;html=1;align=center;verticalAlign=middle;resizable=0;points=[];autosize=1;strokeColor=none;fillColor=none;" vertex="1" parent="1">
          <mxGeometry x="295" y="200" width="40" height="30" as="geometry" />
        </mxCell>
        <mxCell id="8KsDvPxNObZ1WNKapKHJ-18" value="Yes" style="text;html=1;align=center;verticalAlign=middle;resizable=0;points=[];autosize=1;strokeColor=none;fillColor=none;" vertex="1" parent="1">
          <mxGeometry x="340" y="680" width="40" height="30" as="geometry" />
        </mxCell>
        <mxCell id="8KsDvPxNObZ1WNKapKHJ-19" value="Yes" style="text;html=1;align=center;verticalAlign=middle;resizable=0;points=[];autosize=1;strokeColor=none;fillColor=none;" vertex="1" parent="1">
          <mxGeometry x="380" y="550" width="40" height="30" as="geometry" />
        </mxCell>
        <mxCell id="8KsDvPxNObZ1WNKapKHJ-21" value="Faluire Policy" style="strokeWidth=2;html=1;shape=mxgraph.flowchart.decision;whiteSpace=wrap;" vertex="1" parent="1">
          <mxGeometry x="550" y="460" width="100" height="100" as="geometry" />
        </mxCell>
        <mxCell id="8KsDvPxNObZ1WNKapKHJ-22" style="edgeStyle=orthogonalEdgeStyle;rounded=0;orthogonalLoop=1;jettySize=auto;html=1;exitX=1;exitY=0.5;exitDx=0;exitDy=0;exitPerimeter=0;entryX=0;entryY=0.5;entryDx=0;entryDy=0;entryPerimeter=0;" edge="1" parent="1" source="8KsDvPxNObZ1WNKapKHJ-12" target="8KsDvPxNObZ1WNKapKHJ-21">
          <mxGeometry relative="1" as="geometry" />
        </mxCell>
        <mxCell id="8KsDvPxNObZ1WNKapKHJ-23" value="Continue" style="text;html=1;align=center;verticalAlign=middle;resizable=0;points=[];autosize=1;strokeColor=none;fillColor=none;" vertex="1" parent="1">
          <mxGeometry x="525" y="540" width="70" height="30" as="geometry" />
        </mxCell>
        <mxCell id="8KsDvPxNObZ1WNKapKHJ-25" value="Stop" style="text;html=1;align=center;verticalAlign=middle;resizable=0;points=[];autosize=1;strokeColor=none;fillColor=none;" vertex="1" parent="1">
          <mxGeometry x="640" y="480" width="50" height="30" as="geometry" />
        </mxCell>
        <mxCell id="8KsDvPxNObZ1WNKapKHJ-26" style="edgeStyle=orthogonalEdgeStyle;rounded=0;orthogonalLoop=1;jettySize=auto;html=1;exitX=1;exitY=0.5;exitDx=0;exitDy=0;exitPerimeter=0;entryX=1;entryY=0.5;entryDx=0;entryDy=0;entryPerimeter=0;" edge="1" parent="1" source="8KsDvPxNObZ1WNKapKHJ-21" target="8KsDvPxNObZ1WNKapKHJ-3">
          <mxGeometry relative="1" as="geometry">
            <Array as="points">
              <mxPoint x="705" y="510" />
              <mxPoint x="705" y="890" />
            </Array>
          </mxGeometry>
        </mxCell>
        <mxCell id="8KsDvPxNObZ1WNKapKHJ-27" value="No" style="text;html=1;align=center;verticalAlign=middle;resizable=0;points=[];autosize=1;strokeColor=none;fillColor=none;" vertex="1" parent="1">
          <mxGeometry x="460" y="480" width="40" height="30" as="geometry" />
        </mxCell>
        <mxCell id="8KsDvPxNObZ1WNKapKHJ-29" value="No" style="text;html=1;align=center;verticalAlign=middle;resizable=0;points=[];autosize=1;strokeColor=none;fillColor=none;" vertex="1" parent="1">
          <mxGeometry x="420" y="750" width="40" height="30" as="geometry" />
        </mxCell>
        <mxCell id="8KsDvPxNObZ1WNKapKHJ-31" style="edgeStyle=orthogonalEdgeStyle;rounded=0;orthogonalLoop=1;jettySize=auto;html=1;entryX=0.5;entryY=1;entryDx=0;entryDy=0;entryPerimeter=0;exitX=0.5;exitY=1;exitDx=0;exitDy=0;exitPerimeter=0;" edge="1" parent="1" source="8KsDvPxNObZ1WNKapKHJ-21">
          <mxGeometry relative="1" as="geometry">
            <mxPoint x="600" y="550" as="sourcePoint" />
            <mxPoint x="420" y="600" as="targetPoint" />
            <Array as="points">
              <mxPoint x="600" y="600" />
            </Array>
          </mxGeometry>
        </mxCell>
      </root>
    </mxGraphModel>
  </diagram>
</mxfile>
